# ProBuilder 4.0.5
# https://unity3d.com/unity/features/worldbuilding/probuilder
# 01/07/2019 20:31:17

mtllib ./New_Game_Object.mtl
o New Game Object

g New Game Object
v -43.29049 83.10883 -7.325117
v -42.44353 85.20848 -7.325117
v -43.67862 85.73781 -7.325117
v -46.25468 86.67296 -7.325117
v -43.96097 81.16795 -7.325117
v -49.74832 80.12692 -7.325117
v -49.23651 87.53754 -7.325117
v -51.70684 81.06206 -7.325117
v -52.60654 88.20804 -7.325117
v -57.88201 82.93243 -7.325117
v -55.41196 88.56096 -7.325117
v -57.9527 88.77267 -7.325117
v -60.10518 83.28532 -7.325117
v -59.22309 88.77267 -7.325117
v -61.09338 88.79031 -7.325117
v -61.34028 83.40883 -7.325117
v -63.8106 87.60815 -7.325117
v -62.66372 88.73738 -7.325117
v -63.75767 88.59624 -7.325117
v -63.35172 83.56763 -7.325117
v -63.91647 86.35541 -7.325117
v -63.84583 84.78505 -7.325117
v -63.77525 83.58524 -7.325117
v -57.79379 81.11508 -7.325117
v -57.82907 79.58003 -7.325117
v -51.31866 79.1212 -7.325117
v -57.98783 77.83324 -7.325117
v -51.05402 76.651 -7.325117
v -58.27014 76.19233 -7.325117
v -58.71118 74.56905 -7.325117
v -50.96584 74.44545 -7.325117
v -51.15993 71.97526 -7.325117
v -56.25842 69.01108 -7.325117
v -51.68928 69.55801 -7.325117
v -54.70573 68.14651 -7.325117
v -52.32447 67.93473 -7.325117
v -53.15303 66.75262 -7.325117
v -57.66996 69.66392 -7.325117
v -59.20522 73.36924 -7.325117
v -59.89334 72.09885 -7.325117
v -59.2933 70.22856 -7.325117
v -61.05773 70.7226 -7.325117
v -47.96625 79.15648 -7.325117
v -44.54324 78.43306 -7.325117
v -46.11358 77.92137 -7.325117
v -44.73733 76.95094 -7.325117
v -46.11358 77.92137 -12.93488
v -44.54324 78.43306 -12.93488
v -44.73733 76.95094 -12.93488
v -47.96625 79.15648 -12.93488
v -43.96097 81.16795 -12.93488
v -49.74832 80.12692 -12.93488
v -61.05773 70.7226 -12.93488
v -59.89334 72.09885 -12.93488
v -59.2933 70.22856 -12.93488
v -57.66996 69.66392 -12.93488
v -59.20522 73.36924 -12.93488
v -58.71118 74.56905 -12.93488
v -56.25842 69.01108 -12.93488
v -54.70573 68.14651 -12.93488
v -52.32447 67.93473 -12.93488
v -53.15303 66.75262 -12.93488
v -51.68928 69.55801 -12.93488
v -51.15993 71.97526 -12.93488
v -50.96584 74.44545 -12.93488
v -51.05402 76.651 -12.93488
v -58.27014 76.19233 -12.93488
v -57.98783 77.83324 -12.93488
v -51.31866 79.1212 -12.93488
v -57.82907 79.58003 -12.93488
v -51.70684 81.06206 -12.93488
v -57.79379 81.11508 -12.93488
v -57.88201 82.93243 -12.93488
v -63.35172 83.56763 -12.93488
v -63.77525 83.58524 -12.93488
v -63.84583 84.78505 -12.93488
v -63.91647 86.35541 -12.93488
v -63.8106 87.60815 -12.93488
v -61.34028 83.40883 -12.93488
v -62.66372 88.73738 -12.93488
v -63.75767 88.59624 -12.93488
v -61.09338 88.79031 -12.93488
v -60.10518 83.28532 -12.93488
v -59.22309 88.77267 -12.93488
v -57.9527 88.77267 -12.93488
v -55.41196 88.56096 -12.93488
v -52.60654 88.20804 -12.93488
v -49.23651 87.53754 -12.93488
v -46.25468 86.67296 -12.93488
v -43.29049 83.10883 -12.93488
v -43.67862 85.73781 -12.93488
v -42.44353 85.20848 -12.93488

vt 9.862541 -16.3562
vt 10.7095 -18.45586
vt 9.474415 -18.98519
vt 6.898354 -19.92034
vt 9.192062 -14.41534
vt 3.404713 -13.3743
vt 3.916523 -20.78492
vt 1.446198 -14.30944
vt 0.5464897 -21.45542
vt -4.728973 -16.17982
vt -2.258923 -21.80834
vt -4.799667 -22.02006
vt -6.952148 -16.5327
vt -6.070057 -22.02006
vt -7.940346 -22.0377
vt -8.187244 -16.65621
vt -10.65757 -20.85554
vt -9.510685 -21.98477
vt -10.60463 -21.84361
vt -10.19869 -16.81501
vt -10.76343 -19.60279
vt -10.6928 -18.03243
vt -10.62222 -16.83262
vt -4.640751 -14.36246
vt -4.676037 -12.82741
vt 1.834373 -12.36858
vt -4.834797 -11.08063
vt 2.099014 -9.898385
vt -5.117104 -9.439713
vt -5.558144 -7.816438
vt 2.187191 -7.692834
vt 1.993107 -5.222641
vt -3.105389 -2.258461
vt 1.463753 -2.80539
vt -1.552692 -1.393891
vt 0.8285599 -1.182114
vt 0 0
vt -4.516926 -2.911301
vt -6.052181 -6.616624
vt -6.740307 -5.346238
vt -6.14027 -3.475945
vt -7.904694 -3.969986
vt 5.186783 -12.40386
vt 8.609791 -11.68044
vt 7.039452 -11.16876
vt 8.415703 -10.19832
vt -7.039452 -11.16876
vt -8.609791 -11.68044
vt -8.415703 -10.19832
vt -5.186783 -12.40386
vt -9.192062 -14.41534
vt -3.404713 -13.3743
vt 7.904694 -3.969986
vt 6.740307 -5.346238
vt 6.14027 -3.475945
vt 4.516926 -2.911301
vt 6.052181 -6.616624
vt 5.558144 -7.816438
vt 3.105389 -2.258461
vt 1.552692 -1.393891
vt -0.8285599 -1.182114
vt -1.463753 -2.80539
vt -1.993107 -5.222641
vt -2.187191 -7.692834
vt -2.099014 -9.898385
vt 5.117104 -9.439713
vt 4.834797 -11.08063
vt -1.834373 -12.36858
vt 4.676037 -12.82741
vt -1.446198 -14.30944
vt 4.640751 -14.36246
vt 4.728973 -16.17982
vt 10.19869 -16.81501
vt 10.62222 -16.83262
vt 10.6928 -18.03243
vt 10.76343 -19.60279
vt 10.65757 -20.85554
vt 8.187244 -16.65621
vt 9.510685 -21.98477
vt 10.60463 -21.84361
vt 7.940346 -22.0377
vt 6.952148 -16.5327
vt 6.070057 -22.02006
vt 4.799667 -22.02006
vt 2.258923 -21.80834
vt -0.5464898 -21.45542
vt -3.916523 -20.78492
vt -6.898354 -19.92034
vt -9.862541 -16.3562
vt -9.474415 -18.98519
vt -10.7095 -18.45586
vt -12.69949 -1.108638E-06
vt -11.20471 -1.108638E-06
vt -12.69949 -5.609767
vt -11.20471 -5.609767
vt -1.000782 8.781099E-07
vt 0.6832055 8.781099E-07
vt -1.000782 -5.609765
vt 0.6832049 -5.609765
vt 0.338113 9.131583E-07
vt 2.564742 -4.051607E-08
vt 0.3381125 -5.609765
vt 2.564741 -5.609766
vt -16.01346 -2.119355E-06
vt -13.21727 -1.165681E-06
vt -16.01346 -5.609768
vt -13.21727 -5.609767
vt 1.376893 8.939444E-08
vt 3.406061 8.939443E-08
vt 1.376893 -5.609766
vt 3.40606 -5.609766
vt -2.074856 -4.74194E-09
vt -0.2721182 -4.741939E-09
vt -2.074856 -5.609766
vt -0.2721185 -5.609766
vt 6.85008 -3.383745E-07
vt 8.682365 -3.383745E-07
vt 6.85008 -5.609766
vt 8.682364 -5.609766
vt 5.222646 -1.367956E-07
vt 6.941387 -3.752141E-07
vt 5.222646 -5.609766
vt 6.941387 -5.609766
vt 1.49061 -1.338099E-07
vt 2.935393 -6.10647E-07
vt 1.49061 -5.609766
vt 2.935393 -5.609766
vt 3.8139 -6.910212E-07
vt 5.111446 -6.910212E-07
vt 3.813899 -5.609766
vt 5.111445 -5.609766
vt 3.766588 -1.808451E-07
vt 5.321784 -1.808451E-07
vt 3.766587 -5.609766
vt 5.321784 -5.609766
vt -1.443573 -1.192093E-07
vt -1.443573 -5.609766
vt 4.427206E-07 -5.609766
vt 2.086572 -1.192093E-07
vt 2.086572 -5.609766
vt -3.145889 -2.489756E-07
vt -1.402761 -1.297663E-07
vt -3.145889 -5.609766
vt -1.402761 -5.609766
vt 2.034678 -8.486472E-08
vt 3.811852 -2.04074E-07
vt 2.034678 -5.609766
vt 3.811852 -5.609766
vt -5.52811 -4.919247E-07
vt -3.053575 -2.535061E-07
vt -5.528109 -5.609766
vt -3.053574 -5.609766
vt -7.840519 -9.641801E-07
vt -5.362713 -4.873429E-07
vt -7.840518 -5.609767
vt -5.362713 -5.609766
vt -9.806633 -9.367456E-07
vt -7.59932 -9.367456E-07
vt -9.806632 -5.609767
vt -7.59932 -5.609767
vt 6.085682 -7.884608E-07
vt 7.767806 -7.884608E-07
vt 6.085681 -5.609767
vt 7.767805 -5.609767
vt 8.435428 -7.621802E-07
vt 10.10045 -7.621802E-07
vt 8.435427 -5.609767
vt 10.10045 -5.609767
vt -12.1028 -1.850458E-06
vt -9.618469 -8.96784E-07
vt -12.1028 -5.609768
vt -9.618468 -5.609767
vt 10.59753 -8.641506E-07
vt 12.35151 -1.817825E-06
vt 10.59753 -5.609767
vt 12.35151 -5.609768
vt -13.74793 -1.766503E-06
vt -11.76863 -1.766503E-06
vt -13.74793 -5.609768
vt -11.76863 -5.609768
vt 12.71656 -1.887934E-06
vt 14.25202 -1.887934E-06
vt 12.71656 -5.609768
vt 14.25202 -5.609768
vt 14.57058 -1.939817E-06
vt 16.39008 -1.939817E-06
vt 14.57058 -5.609768
vt 16.39008 -5.609768
vt 10.88838 -1.907349E-06
vt 11.31228 -1.907349E-06
vt 10.88838 -5.609768
vt 11.31228 -5.609768
vt 17.42735 -1.907349E-06
vt 18.62924 -1.907349E-06
vt 17.42735 -5.609768
vt 18.62924 -5.609768
vt 18.49469 -1.907349E-06
vt 20.06663 -1.907349E-06
vt 18.49469 -5.609768
vt 20.06663 -5.609768
vt 18.62682 -1.907349E-06
vt 19.88403 -1.907349E-06
vt 18.62682 -5.609768
vt 19.88403 -5.609768
vt 9.472734 -1.907349E-06
vt 11.49044 -1.907349E-06
vt 9.472734 -5.609768
vt 11.49044 -5.609768
vt 20.25555 -1.907349E-06
vt 21.24504 -1.907349E-06
vt 20.25555 -5.609768
vt 21.24504 -5.609768
vt -7.72215 -1.907349E-06
vt -6.619133 -1.907349E-06
vt -7.72215 -5.609768
vt -6.619133 -5.609768
vt -8.764648 -1.907349E-06
vt -7.193417 -1.907349E-06
vt -8.764648 -5.609768
vt -7.193417 -5.609768
vt 8.562745 -1.907349E-06
vt 9.804002 -1.907349E-06
vt 8.562745 -5.609768
vt 9.804002 -5.609768
vt -8.147826 -1.907349E-06
vt -6.277454 -1.907349E-06
vt -8.147826 -5.609768
vt -6.277454 -5.609768
vt -6.070057 -1.907349E-06
vt -4.799667 -1.907349E-06
vt -6.070057 -5.609768
vt -4.799667 -5.609768
vt 7.206956 -1.907349E-06
vt 9.457963 -1.907349E-06
vt 7.206956 -5.609768
vt 9.457963 -5.609768
vt -6.611645 -1.907349E-06
vt -4.062094 -1.907349E-06
vt -6.611645 -5.609768
vt -4.062094 -5.609768
vt -4.963348 -1.907349E-06
vt -2.135823 -1.907349E-06
vt -4.963348 -5.609768
vt -2.135823 -5.609768
vt -3.650677 -1.907349E-06
vt -0.2145915 -1.907349E-06
vt -3.650677 -5.609768
vt -0.2145915 -5.609768
vt 2.690251 1.692539E-07
vt 4.860567 1.692539E-07
vt 2.69025 -5.609766
vt 4.860567 -5.609766
vt -2.026622 -1.907349E-06
vt 1.078023 -1.907349E-06
vt -2.026622 -5.609768
vt 1.078023 -5.609768
vt -18.68004 -1.907349E-06
vt -16.62663 -1.907349E-06
vt -18.68004 -5.609768
vt -16.62663 -5.609768
vt -0.3129932 -1.907349E-06
vt 2.427551 -1.907349E-06
vt -0.3129932 -5.609768
vt 2.427551 -5.609768
vt 1.229538 -1.907349E-06
vt 2.573275 -1.907349E-06
vt 1.229538 -5.609768
vt 2.573275 -5.609768
vt -21.12214 -1.907349E-06
vt -18.8581 -1.907349E-06
vt -21.12214 -5.609768
vt -18.8581 -5.609768

vn 0 0 1
vn 0 0 -1
vn 0.9915344 -0.129844 0
vn -0.5762728 -0.8172575 0
vn -0.5546986 -0.8320513 0
vn 0.9780783 -0.2082374 0
vn -0.4782464 -0.8782257 0
vn -0.7634228 0.6458991 0
vn -0.2696314 -0.9629636 0
vn -0.3285218 -0.9444964 0
vn -0.879292 0.4762831 0
vn -0.924679 0.3807476 0
vn -0.4197795 -0.9076262 0
vn 0.8188802 -0.5739645 0
vn -0.6680288 -0.7441354 0
vn 0.9312432 -0.3643984 0
vn -0.4864861 -0.8736883 0
vn 0.976851 -0.2139207 0
vn 0.9969276 -0.07832907 0
vn 0.9992018 0.03994754 0
vn -0.9650156 0.2621924 0
vn -0.9855214 0.1695513 0
vn 0.9943101 0.1065238 0
vn -0.9958952 0.09051378 0
vn 0.9805803 0.1961184 0
vn -0.999736 0.02298078 0
vn -0.9988238 -0.04848743 0
vn -0.04153996 -0.9991369 0
vn -0.9982743 -0.05872389 0
vn -0.99899 -0.04493344 0
vn -0.9964483 0.08420656 0
vn -0.07870249 -0.9968982 0
vn -0.9985682 0.05349444 0
vn -0.1279617 0.9917791 0
vn -0.0336887 0.9994324 0
vn -0.09949976 -0.9950376 0
vn 0.009430829 0.9999555 0
vn 0 1 0
vn -0.1567697 -0.9876352 0
vn 0.0830404 0.9965462 0
vn 0.1248161 0.9921799 0
vn 0.1951352 0.9807764 0
vn -0.4308756 -0.9024113 0
vn 0.2784791 0.9604423 0
vn 0.9451908 -0.3265184 0
vn 0.3412276 0.9399807 0
vn 0.3939227 0.9191436 0
vn 0.927392 -0.374091 0

g New Game Object
usemtl tongue
f 1/1/1 2/2/1 3/3/1
f 4/4/1 1/1/1 3/3/1
f 5/5/1 1/1/1 4/4/1
f 5/5/1 4/4/1 6/6/1
f 4/4/1 7/7/1 6/6/1
f 6/6/1 7/7/1 8/8/1
f 8/8/1 7/7/1 9/9/1
f 10/10/1 8/8/1 9/9/1
f 10/10/1 9/9/1 11/11/1
f 10/10/1 11/11/1 12/12/1
f 10/10/1 12/12/1 13/13/1
f 12/12/1 14/14/1 13/13/1
f 13/13/1 14/14/1 15/15/1
f 13/13/1 15/15/1 16/16/1
f 17/17/1 16/16/1 15/15/1
f 15/15/1 18/18/1 17/17/1
f 19/19/1 17/17/1 18/18/1
f 20/20/1 16/16/1 17/17/1
f 21/21/1 20/20/1 17/17/1
f 21/21/1 22/22/1 20/20/1
f 22/22/1 23/23/1 20/20/1
f 24/24/1 8/8/1 10/10/1
f 8/8/1 24/24/1 25/25/1
f 26/26/1 8/8/1 25/25/1
f 27/27/1 26/26/1 25/25/1
f 27/27/1 28/28/1 26/26/1
f 27/27/1 29/29/1 28/28/1
f 28/28/1 29/29/1 30/30/1
f 28/28/1 30/30/1 31/31/1
f 32/32/1 31/31/1 30/30/1
f 30/30/1 33/33/1 32/32/1
f 33/33/1 34/34/1 32/32/1
f 35/35/1 34/34/1 33/33/1
f 36/36/1 34/34/1 35/35/1
f 37/37/1 36/36/1 35/35/1
f 30/30/1 38/38/1 33/33/1
f 38/38/1 30/30/1 39/39/1
f 40/40/1 38/38/1 39/39/1
f 41/41/1 38/38/1 40/40/1
f 41/41/1 40/40/1 42/42/1
f 43/43/1 5/5/1 6/6/1
f 44/44/1 5/5/1 43/43/1
f 45/45/1 44/44/1 43/43/1
f 46/46/1 44/44/1 45/45/1
f 47/47/2 48/48/2 49/49/2
f 50/50/2 48/48/2 47/47/2
f 50/50/2 51/51/2 48/48/2
f 52/52/2 51/51/2 50/50/2
f 53/53/2 54/54/2 55/55/2
f 54/54/2 56/56/2 55/55/2
f 57/57/2 56/56/2 54/54/2
f 57/57/2 58/58/2 56/56/2
f 59/59/2 56/56/2 58/58/2
f 60/60/2 61/61/2 62/37/2
f 60/60/2 63/62/2 61/61/2
f 59/59/2 63/62/2 60/60/2
f 64/63/2 63/62/2 59/59/2
f 64/63/2 59/59/2 58/58/2
f 58/58/2 65/64/2 64/63/2
f 65/64/2 58/58/2 66/65/2
f 58/58/2 67/66/2 66/65/2
f 66/65/2 67/66/2 68/67/2
f 69/68/2 66/65/2 68/67/2
f 70/69/2 69/68/2 68/67/2
f 70/69/2 71/70/2 69/68/2
f 70/69/2 72/71/2 71/70/2
f 73/72/2 71/70/2 72/71/2
f 74/73/2 75/74/2 76/75/2
f 74/73/2 76/75/2 77/76/2
f 78/77/2 74/73/2 77/76/2
f 78/77/2 79/78/2 74/73/2
f 80/79/2 78/77/2 81/80/2
f 78/77/2 80/79/2 82/81/2
f 82/81/2 79/78/2 78/77/2
f 79/78/2 82/81/2 83/82/2
f 82/81/2 84/83/2 83/82/2
f 83/82/2 84/83/2 85/84/2
f 83/82/2 85/84/2 73/72/2
f 85/84/2 86/85/2 73/72/2
f 86/85/2 87/86/2 73/72/2
f 87/86/2 71/70/2 73/72/2
f 87/86/2 88/87/2 71/70/2
f 71/70/2 88/87/2 52/52/2
f 52/52/2 88/87/2 89/88/2
f 52/52/2 89/88/2 51/51/2
f 89/88/2 90/89/2 51/51/2
f 91/90/2 90/89/2 89/88/2
f 91/90/2 92/91/2 90/89/2
f 44/92/3 46/93/3 48/94/3
f 46/93/3 49/95/3 48/94/3
f 46/96/4 45/97/4 49/98/4
f 45/97/4 47/99/4 49/98/4
f 45/100/5 43/101/5 47/102/5
f 43/101/5 50/103/5 47/102/5
f 5/104/6 44/105/6 51/106/6
f 44/105/6 48/107/6 51/106/6
f 43/108/7 6/109/7 50/110/7
f 6/109/7 52/111/7 50/110/7
f 42/112/8 40/113/8 53/114/8
f 40/113/8 54/115/8 53/114/8
f 41/116/9 42/117/9 55/118/9
f 42/117/9 53/119/9 55/118/9
f 38/120/10 41/121/10 56/122/10
f 41/121/10 55/123/10 56/122/10
f 40/124/11 39/125/11 54/126/11
f 39/125/11 57/127/11 54/126/11
f 39/128/12 30/129/12 57/130/12
f 30/129/12 58/131/12 57/130/12
f 33/132/13 38/133/13 59/134/13
f 38/133/13 56/135/13 59/134/13
f 36/136/14 37/37/14 61/137/14
f 37/37/14 62/138/14 61/137/14
f 37/37/15 35/139/15 62/138/15
f 35/139/15 60/140/15 62/138/15
f 34/141/16 36/142/16 63/143/16
f 36/142/16 61/144/16 63/143/16
f 35/145/17 33/146/17 60/147/17
f 33/146/17 59/148/17 60/147/17
f 32/149/18 34/150/18 64/151/18
f 34/150/18 63/152/18 64/151/18
f 31/153/19 32/154/19 65/155/19
f 32/154/19 64/156/19 65/155/19
f 28/157/20 31/158/20 66/159/20
f 31/158/20 65/160/20 66/159/20
f 30/161/21 29/162/21 58/163/21
f 29/162/21 67/164/21 58/163/21
f 29/165/22 27/166/22 67/167/22
f 27/166/22 68/168/22 67/167/22
f 26/169/23 28/170/23 69/171/23
f 28/170/23 66/172/23 69/171/23
f 27/173/24 25/174/24 68/175/24
f 25/174/24 70/176/24 68/175/24
f 8/177/25 26/178/25 71/179/25
f 26/178/25 69/180/25 71/179/25
f 25/181/26 24/182/26 70/183/26
f 24/182/26 72/184/26 70/183/26
f 24/185/27 10/186/27 72/187/27
f 10/186/27 73/188/27 72/187/27
f 20/189/28 23/190/28 74/191/28
f 23/190/28 75/192/28 74/191/28
f 23/193/29 22/194/29 75/195/29
f 22/194/29 76/196/29 75/195/29
f 22/197/30 21/198/30 76/199/30
f 21/198/30 77/200/30 76/199/30
f 21/201/31 17/202/31 77/203/31
f 17/202/31 78/204/31 77/203/31
f 16/205/32 20/206/32 79/207/32
f 20/206/32 74/208/32 79/207/32
f 17/209/33 19/210/33 78/211/33
f 19/210/33 81/212/33 78/211/33
f 19/213/34 18/214/34 81/215/34
f 18/214/34 80/216/34 81/215/34
f 18/217/35 15/218/35 80/219/35
f 15/218/35 82/220/35 80/219/35
f 13/221/36 16/222/36 83/223/36
f 16/222/36 79/224/36 83/223/36
f 15/225/37 14/226/37 82/227/37
f 14/226/37 84/228/37 82/227/37
f 14/229/38 12/230/38 84/231/38
f 12/230/38 85/232/38 84/231/38
f 10/233/39 13/234/39 73/235/39
f 13/234/39 83/236/39 73/235/39
f 12/237/40 11/238/40 85/239/40
f 11/238/40 86/240/40 85/239/40
f 11/241/41 9/242/41 86/243/41
f 9/242/41 87/244/41 86/243/41
f 9/245/42 7/246/42 87/247/42
f 7/246/42 88/248/42 87/247/42
f 6/249/43 8/250/43 52/251/43
f 8/250/43 71/252/43 52/251/43
f 7/253/44 4/254/44 88/255/44
f 4/254/44 89/256/44 88/255/44
f 1/257/45 5/258/45 90/259/45
f 5/258/45 51/260/45 90/259/45
f 4/261/46 3/262/46 89/263/46
f 3/262/46 91/264/46 89/263/46
f 3/265/47 2/266/47 91/267/47
f 2/266/47 92/268/47 91/267/47
f 2/269/48 1/270/48 92/271/48
f 1/270/48 90/272/48 92/271/48

